<svg xmlns="http://www.w3.org/2000/svg" viewBox="0 0 200 230" fill="none">
  <rect width="200" height="230" rx="24" fill="url(#bg)"/>
  <g fill="#0f1f1f">
    <path d="M35 60c0-33 27-60 60-60h45v28H95c-18 0-32 14-32 32v40c0 18 14 32 32 32h45v28H95c-33 0-60-27-60-60V60Z"/>
    <circle cx="145" cy="68" r="52"/>
  </g>
  <path d="M88 68 112 54v28L88 68Z" fill="#1f4136"/>
  <path d="M145 36c17 0 32 15 32 32 0 28-32 50-32 50s-32-22-32-50c0-17 15-32 32-32Z" fill="#f0f1ee"/>
  <path d="M145 48c11 0 20 9 20 20 0 19-20 34-20 34s-20-15-20-34c0-11 9-20 20-20Z" fill="#0f1f1f"/>
  <path d="M145 52c9 0 16 7 16 16 0 16-16 28-16 28s-16-12-16-28c0-9 7-16 16-16Z" fill="#1f4136"/>
  <path d="M94 140h12l16 24v60h-12v-54l-16-24Z" fill="#0f1f1f"/>
  <g stroke="#0f1f1f" stroke-width="10" stroke-linecap="round">
    <path d="M82 156 52 200"/>
    <path d="M118 156 148 200"/>
    <path d="M100 156 100 216"/>
  </g>
  <g fill="#0f1f1f">
    <circle cx="52" cy="200" r="10"/>
    <circle cx="148" cy="200" r="10"/>
    <circle cx="100" cy="216" r="10"/>
  </g>
  <circle cx="100" cy="156" r="18" fill="#1f4136" stroke="#0f1f1f" stroke-width="8"/>
  <defs>
    <linearGradient id="bg" x1="0" y1="0" x2="200" y2="230" gradientUnits="userSpaceOnUse">
      <stop stop-color="#f7f7f3"/>
      <stop offset="1" stop-color="#f1f2ed"/>
    </linearGradient>
  </defs>
</svg>
